#!OML:ASF X:\für Bonn\!DataBase\2005_08_10_Bjorn_Final\c3d\bjorn.ASF
:FULLY-SPECIFIED
:DEGREES
95
root 1.37632 18.7495 2.27128 -184.777 -0.62929 -207.97
lowerback 5.47292 -4.10977 11.8456
upperback 12.0395 -3.69109 0.0720101
thorax 9.09613 0.0145941 -6.43526
lowerneck -1.67639 10.6744 1.7887
upperneck 11.525 15.8923 -21.9022
head 5.7233 6.13599 -6.2521
rclavicle -2.22639e-014 -4.77083e-014
rhumerus -62.4131 -30.5971 -19.5473
rradius 31.2618
rwrist -30.1932
rhand -17.0619 7.78062
rfingers 7.12502
rthumb 9.17565 -21.9998
lclavicle -2.22639e-014 -4.77083e-014
lhumerus -5.47591 8.94368 36.9277
lradius 73.6416
lwrist -35.004
lhand -56.0359 -35.5177
lfingers 7.12502
lthumb -28.3705 -7.64746
rfemur -12.2445 -8.07634 -14.1005
rtibia 43.1435
rfoot -17.9004 23.1749
rtoes -11.9356
lfemur -15.2388 5.6073 5.61151
ltibia 37.922
lfoot 15.6687 7.2234
ltoes -7.41252
96
root 1.36406 18.7215 2.28295 -184.876 -0.193683 -207.775
lowerback 5.60611 -4.07296 11.994
upperback 12.1256 -3.60593 0.248703
thorax 9.14096 0.0786602 -6.31736
lowerneck -1.68406 10.558 1.62103
upperneck 10.7294 15.6116 -22.1908
head 5.45446 6.03961 -6.3399
rclavicle -6.52014e-014 -1.145e-013
rhumerus -62.5138 -30.3941 -20.2708
rradius 29.9127
rwrist -29.7896
rhand -16.3673 7.53791
rfingers 7.12502
rthumb 9.84576 -22.2119
lclavicle -6.52014e-014 -1.145e-013
lhumerus -5.11114 8.53164 35.9179
lradius 74.0454
lwrist -34.6481
lhand -55.884 -35.8095
lfingers 7.12502
lthumb -28.2254 -7.91516
rfemur -12.6439 -7.63527 -13.7369
rtibia 43.5721
rfoot -18.5978 22.812
rtoes -12.0866
lfemur -14.8518 6.2115 4.82751
ltibia 39.7577
lfoot 16.7539 4.73581
ltoes -8.72427
97
root 1.35165 18.6926 2.29537 -184.938 0.253413 -207.588
lowerback 5.73206 -4.03629 12.1438
upperback 12.1957 -3.52464 0.418972
thorax 9.17066 0.137729 -6.2077
lowerneck -1.86986 10.4798 1.2928
upperneck 10.2271 15.4301 -22.334
head 5.29777 5.95144 -6.33877
rclavicle 7.79236e-014 1.43125e-013
rhumerus -62.6514 -30.3454 -20.9707
rradius 28.6584
rwrist -28.9722
rhand -15.6426 7.35245
rfingers 7.12502
rthumb 10.5449 -22.363
lclavicle 7.79236e-014 1.43125e-013
lhumerus -4.87579 8.19416 35.0158
lradius 74.7119
lwrist -34.588
lhand -55.7242 -35.4685
lfingers 7.12502
lthumb -28.0726 -7.549
rfemur -13.0911 -7.21864 -13.3807
rtibia 44.0092
rfoot -19.2416 22.4499
rtoes -12.2031
lfemur -14.4892 6.75457 4.03646
ltibia 41.3944
lfoot 17.7424 2.33728
ltoes -10.5792
98
root 1.34004 18.6645 2.30909 -184.982 0.683168 -207.38
lowerback 5.84866 -4.03178 12.3221
upperback 12.2693 -3.48491 0.567168
thorax 9.19968 0.180984 -6.13776
lowerneck -2.14509 10.4294 0.847093
upperneck 9.90647 15.3158 -22.3558
head 5.20323 5.8751 -6.27028
rclavicle -1.11319e-014 -2.54444e-014
rhumerus -62.7794 -30.4316 -21.747
rradius 27.6085
rwrist -27.9627
rhand -15.0596 7.15088
rfingers 7.12502
rthumb 11.1072 -22.5352
lclavicle -1.11319e-014 -2.54444e-014
lhumerus -4.74598 7.94311 34.1794
lradius 75.4727
lwrist -34.5427
lhand -55.6082 -35.0368
lfingers 7.12502
lthumb -27.9618 -7.0992
rfemur -13.5311 -6.79648 -12.997
rtibia 44.4246
rfoot -19.842 22.0647
rtoes -12.3358
lfemur -14.1384 7.11565 3.27289
ltibia 42.8428
lfoot 18.5369 0.571967
ltoes -10.623
99
root 1.33067 18.6428 2.32202 -184.969 1.11547 -207.191
lowerback 5.90895 -4.03419 12.5004
upperback 12.3492 -3.46417 0.682004
thorax 9.26379 0.218367 -6.1064
lowerneck -2.52638 10.4016 0.330656
upperneck 9.68328 15.2574 -22.2948
head 5.15302 5.81297 -6.15419
rclavicle 3.18055e-014 9.54166e-014
rhumerus -62.8254 -30.595 -22.7816
rradius 26.896
rwrist -27.5169
rhand -14.8223 6.98457
rfingers 7.12502
rthumb 11.3362 -22.689
lclavicle 3.18055e-014 9.54166e-014
lhumerus -4.67008 7.77185 33.4818
lradius 76.242
lwrist -34.1988
lhand -55.655 -34.9607
lfingers 7.12502
lthumb -28.0065 -7.03039
rfemur -14.0016 -6.36274 -12.6238
rtibia 44.7948
rfoot -20.3495 21.647
rtoes -12.3541
lfemur -13.8473 7.30531 2.47564
ltibia 44.1357
lfoot 19.0682 -0.682661
ltoes -9.39151
100
root 1.32345 18.6263 2.33443 -184.925 1.52388 -206.997
lowerback 5.93332 -4.05615 12.6657
upperback 12.4339 -3.47498 0.789192
thorax 9.348 0.241287 -6.07707
lowerneck -2.87131 10.3831 -0.14343
upperneck 9.48252 15.2167 -22.2741
head 5.11233 5.75834 -6.0593
rclavicle 3.65764e-014 7.31528e-014
rhumerus -62.8257 -30.789 -23.978
rradius 26.3735
rwrist -27.2096
rhand -14.7925 7.07498
rfingers 7.12502
rthumb 11.3649 -22.5971
lclavicle 3.65764e-014 7.31528e-014
lhumerus -4.68223 7.63019 32.9356
lradius 77.0605
lwrist -33.5752
lhand -55.7913 -35.1629
lfingers 7.12502
lthumb -28.1368 -7.25393
rfemur -14.4494 -5.86853 -12.2314
rtibia 45.1077
rfoot -20.8125 21.1701
rtoes -12.2773
lfemur -13.6025 7.31876 1.63694
ltibia 45.3024
lfoot 19.2106 -1.88426
ltoes -9.01506
101
root 1.31583 18.6126 2.34655 -184.85 1.91844 -206.81
lowerback 5.91773 -4.08733 12.811
upperback 12.5322 -3.50375 0.885072
thorax 9.46769 0.257868 -6.05013
lowerneck -3.24981 10.38 -0.595742
upperneck 9.30844 15.2098 -22.2477
head 5.09126 5.71791 -5.96186
rclavicle -1.59028e-014 -1.145e-013
rhumerus -62.7624 -31.0315 -25.2975
rradius 26.0005
rwrist -26.9837
rhand -14.81 7.22601
rfingers 7.12502
rthumb 11.348 -22.447
lclavicle -1.59028e-014 -1.145e-013
lhumerus -4.73169 7.61243 32.5728
lradius 77.9135
lwrist -33.0213
lhand -55.8761 -35.497
lfingers 7.12502
lthumb -28.2178 -7.60143
rfemur -14.8954 -5.33887 -11.8519
rtibia 45.3731
rfoot -21.231 20.6663
rtoes -12.1435
lfemur -13.4078 7.31465 0.749153
ltibia 46.3524
lfoot 19.0196 -3.05116
ltoes -9.21806
102
root 1.30986 18.5994 2.35694 -184.748 2.29537 -206.624
lowerback 5.86695 -4.10766 12.9016
upperback 12.6356 -3.52562 0.981428
thorax 9.61672 0.27459 -5.99381
lowerneck -3.62336 10.3845 -0.916292
upperneck 9.16234 15.2256 -22.3265
head 5.09956 5.68367 -5.91794
rclavicle 4.77083e-014 5.08889e-014
rhumerus -62.733 -31.3455 -26.6255
rradius 25.7468
rwrist -26.7215
rhand -14.8411 7.41263
rfingers 7.12502
rthumb 11.318 -22.262
lclavicle 4.77083e-014 5.08889e-014
lhumerus -4.77366 7.72094 32.4012
lradius 78.7706
lwrist -32.7695
lhand -55.9741 -35.6967
lfingers 7.12502
lthumb -28.3115 -7.81665
rfemur -15.3341 -4.77953 -11.4749
rtibia 45.6035
rfoot -21.6182 20.1328
rtoes -12.1053
lfemur -13.2615 7.33199 -0.167845
ltibia 47.2785
lfoot 18.5812 -4.17491
ltoes -9.66448
103
root 1.30483 18.5878 2.36669 -184.625 2.65524 -206.426
lowerback 5.80347 -4.13643 12.9251
upperback 12.7272 -3.56388 1.10548
thorax 9.75916 0.273519 -5.87075
lowerneck -3.89162 10.4034 -1.16911
upperneck 8.95487 15.2424 -22.5183
head 5.08516 5.6552 -5.92675
rclavicle 1.27222e-014 3.18055e-015
rhumerus -62.6491 -31.689 -27.8956
rradius 25.589
rwrist -26.3366
rhand -14.817 7.47138
rfingers 7.12502
rthumb 11.3413 -22.202
lclavicle 1.27222e-014 3.18055e-015
lhumerus -4.92987 7.87621 32.4447
lradius 79.7151
lwrist -32.6101
lhand -55.9954 -35.8416
lfingers 7.12502
lthumb -28.3318 -7.96493
rfemur -15.7643 -4.15245 -11.0796
rtibia 45.807
rfoot -21.9801 19.5403
rtoes -11.9985
lfemur -13.1562 7.25828 -1.12594
ltibia 48.0699
lfoot 17.9118 -4.99929
ltoes -9.73693
104
root 1.30057 18.5791 2.37482 -184.471 2.94181 -206.263
lowerback 5.66685 -4.1877 12.8755
upperback 12.8444 -3.64219 1.22992
thorax 9.96796 0.253101 -5.70956
lowerneck -4.20495 7.94049 -1.26483
upperneck 7.66788 15.556 -23.2825
head 4.87633 7.69426 -5.94768
rclavicle 4.13472e-014 5.08889e-014
rhumerus -62.4878 -32.1481 -29.1187
rradius 25.4877
rwrist -25.6001
rhand -14.3168 7.97675
rfingers 7.12502
rthumb 11.8237 -21.6695
lclavicle 4.13472e-014 5.08889e-014
lhumerus -5.09592 8.05797 32.6587
lradius 80.7366
lwrist -32.5146
lhand -56.0125 -35.6915
lfingers 7.12502
lthumb -28.3482 -7.81752
rfemur -16.1747 -3.56273 -10.735
rtibia 45.9813
rfoot -22.3072 18.9487
rtoes -11.9366
lfemur -13.1247 7.04998 -2.18344
ltibia 48.7234
lfoot 17.0952 -5.3085
ltoes -8.58429
105
root 1.29833 18.5742 2.38108 -184.279 3.19675 -206.078
lowerback 5.50406 -4.20667 12.8519
upperback 12.9005 -3.69515 1.32921
thorax 10.1257 0.235107 -5.59324
lowerneck -4.35089 7.91918 -1.32422
upperneck 7.4685 15.5613 -23.5416
head 4.86305 7.70764 -6.01249
rclavicle 3.81667e-014 6.67916e-014
rhumerus -62.449 -32.6072 -30.2948
rradius 25.4729
rwrist -24.5747
rhand -13.7757 8.32722
rfingers 7.12502
rthumb 12.3454 -21.2883
lclavicle 3.81667e-014 6.67916e-014
lhumerus -5.25611 8.06497 32.9582
lradius 81.7932
lwrist -32.4539
lhand -56.0266 -35.3534
lfingers 7.12502
lthumb -28.3616 -7.48168
rfemur -16.5799 -2.95209 -10.3648
rtibia 46.1191
rfoot -22.5968 18.3204
rtoes -11.8654
lfemur -13.1615 6.77722 -3.26237
ltibia 49.2473
lfoot 15.9854 -5.19753
ltoes -7.10523
106
root 1.2969 18.5716 2.38708 -184.093 3.43934 -205.878
lowerback 5.36214 -4.22663 12.8151
upperback 12.946 -3.7468 1.43255
thorax 10.2599 0.213548 -5.46476
lowerneck -4.46624 7.89949 -1.35485
upperneck 7.30572 15.5684 -23.7873
head 4.85651 7.72069 -6.07907
rclavicle -2.06736e-014 2.22639e-014
rhumerus -62.155 -32.8597 -31.8989
rradius 25.6576
rwrist -24.1949
rhand -13.4723 8.4628
rfingers 7.12502
rthumb 12.6379 -21.1349
lclavicle -2.06736e-014 2.22639e-014
lhumerus -5.46533 8.01369 33.3455
lradius 82.9023
lwrist -32.5208
lhand -56.0761 -34.7409
lfingers 7.12502
lthumb -28.4089 -6.87704
rfemur -16.9499 -2.28609 -9.98785
rtibia 46.2177
rfoot -22.7904 17.7491
rtoes -11.4954
lfemur -13.2094 6.42195 -4.35993
ltibia 49.6512
lfoot 14.507 -4.76566
ltoes -6.17096
107
root 1.29608 18.5717 2.3934 -183.888 3.6345 -205.655
lowerback 5.19075 -4.26118 12.7773
upperback 12.9913 -3.82268 1.54576
thorax 10.4077 0.180655 -5.32642
lowerneck -4.59634 7.87691 -1.36135
upperneck 7.17396 15.5834 -24.0501
head 4.86666 7.73451 -6.15305
rclavicle -2.54444e-014 1.90833e-014
rhumerus -61.8443 -33.2245 -33.4049
rradius 25.9
rwrist -23.648
rhand -13.1273 8.6465
rfingers 7.12502
rthumb 12.9705 -20.9303
lclavicle -2.54444e-014 1.90833e-014
lhumerus -5.70529 7.9747 33.8144
lradius 84.0024
lwrist -32.8555
lhand -56.2281 -33.8327
lfingers 7.12502
lthumb -28.5542 -5.99319
rfemur -17.2917 -1.61287 -9.58998
rtibia 46.2776
rfoot -22.9749 17.136
rtoes -11.2022
lfemur -13.3047 5.99601 -5.45627
ltibia 49.9527
lfoot 12.7608 -4.0038
ltoes -5.83683
108
root 1.29456 18.5749 2.39963 -183.697 3.85677 -205.404
lowerback 5.06536 -4.27129 12.7992
upperback 13.0098 -3.86237 1.62695
thorax 10.5014 0.1655 -5.2545
lowerneck -4.67608 7.86399 -1.40544
upperneck 7.14712 15.6012 -24.169
head 4.88385 7.74013 -6.17776
rclavicle 3.18055e-015 -2.54444e-014
rhumerus -61.6492 -33.6495 -34.8491
rradius 26.2875
rwrist -23.2558
rhand -12.8039 8.54288
rfingers 7.12502
rthumb 13.2822 -21.0139
lclavicle 3.18055e-015 -2.54444e-014
lhumerus -5.92365 7.83149 34.3114
lradius 85.0705
lwrist -33.3637
lhand -56.4003 -32.8812
lfingers 7.12502
lthumb -28.7187 -5.06944
rfemur -17.6061 -0.908711 -9.16808
rtibia 46.3023
rfoot -23.1477 16.4979
rtoes -11.0196
lfemur -13.391 5.56382 -6.53474
ltibia 50.1634
lfoot 10.9205 -2.90088
ltoes -5.97309
109
root 1.29152 18.5793 2.40647 -183.527 4.06968 -205.128
lowerback 4.95405 -4.26457 12.8711
upperback 13.0387 -3.87496 1.68415
thorax 10.6019 0.171907 -5.235
lowerneck -4.79205 7.8457 -1.42302
upperneck 7.20802 15.6193 -24.2295
head 4.9308 7.73401 -6.18538
rclavicle -3.02153e-014 -5.08889e-014
rhumerus -61.4087 -34.0218 -36.4173
rradius 26.6957
rwrist -22.9951
rhand -12.4724 8.37891
rfingers 7.12502
rthumb 13.6018 -21.1567
lclavicle -3.02153e-014 -5.08889e-014
lhumerus -6.06437 7.5937 34.8637
lradius 86.0948
lwrist -33.8331
lhand -56.5333 -31.982
lfingers 7.12502
lthumb -28.8457 -4.19184
rfemur -17.8659 -0.206305 -8.73741
rtibia 46.2981
rfoot -23.3159 15.8349
rtoes -11.0448
lfemur -13.4717 5.11232 -7.59458
ltibia 50.3002
lfoot 8.96419 -1.52567
ltoes -7.05871
